<svg height="1486" width="720" xmlns="http://www.w3.org/2000/svg">
<rect height="1486" fill="#555" width="720"></rect>
<text fill="#7f7" font-family="Courier New" font-size="12" xml:space="preserve">
<tspan x="10" y="26">6 megabytes installed</tspan>
<tspan x="10" y="42"></tspan>
<tspan x="10" y="58">node_modules</tspan>
<tspan x="10" y="74">└─┬ netbeast@1.1.0 </tspan>
<tspan x="10" y="90">  ├── bluebird@3.5.0 </tspan>
<tspan x="10" y="106">  ├─┬ chalk@1.1.3 </tspan>
<tspan x="10" y="122">  │ ├── ansi-styles@2.2.1 </tspan>
<tspan x="10" y="138">  │ ├── escape-string-regexp@1.0.5 </tspan>
<tspan x="10" y="154">  │ ├─┬ has-ansi@2.0.0 </tspan>
<tspan x="10" y="170">  │ │ └── ansi-regex@2.1.1 </tspan>
<tspan x="10" y="186">  │ ├── strip-ansi@3.0.1 </tspan>
<tspan x="10" y="202">  │ └── supports-color@2.0.0 </tspan>
<tspan x="10" y="218">  ├── cli-spinner@0.2.6 </tspan>
<tspan x="10" y="234">  ├── freeport@1.0.5 </tspan>
<tspan x="10" y="250">  ├─┬ mqtt@1.14.1 </tspan>
<tspan x="10" y="266">  │ ├─┬ commist@1.0.0 </tspan>
<tspan x="10" y="282">  │ │ └── leven@1.0.2 </tspan>
<tspan x="10" y="298">  │ ├─┬ concat-stream@1.6.0 </tspan>
<tspan x="10" y="314">  │ │ ├─┬ readable-stream@2.2.9 </tspan>
<tspan x="10" y="330">  │ │ │ ├── buffer-shims@1.0.0 </tspan>
<tspan x="10" y="346">  │ │ │ ├── isarray@1.0.0 </tspan>
<tspan x="10" y="362">  │ │ │ ├── process-nextick-args@1.0.7 </tspan>
<tspan x="10" y="378">  │ │ │ ├── string_decoder@1.0.0 </tspan>
<tspan x="10" y="394">  │ │ │ └── util-deprecate@1.0.2 </tspan>
<tspan x="10" y="410">  │ │ └── typedarray@0.0.6 </tspan>
<tspan x="10" y="426">  │ ├─┬ end-of-stream@1.4.0 </tspan>
<tspan x="10" y="442">  │ │ └─┬ once@1.4.0 </tspan>
<tspan x="10" y="458">  │ │   └── wrappy@1.0.2 </tspan>
<tspan x="10" y="474">  │ ├─┬ help-me@1.1.0 </tspan>
<tspan x="10" y="490">  │ │ ├── callback-stream@1.1.0 </tspan>
<tspan x="10" y="506">  │ │ ├─┬ glob-stream@6.1.0 </tspan>
<tspan x="10" y="522">  │ │ │ ├── extend@3.0.0 </tspan>
<tspan x="10" y="538">  │ │ │ ├─┬ glob@7.1.1 </tspan>
<tspan x="10" y="554">  │ │ │ │ ├── fs.realpath@1.0.0 </tspan>
<tspan x="10" y="570">  │ │ │ │ ├── inflight@1.0.6 </tspan>
<tspan x="10" y="586">  │ │ │ │ ├─┬ minimatch@3.0.3 </tspan>
<tspan x="10" y="602">  │ │ │ │ │ └─┬ brace-expansion@1.1.7 </tspan>
<tspan x="10" y="618">  │ │ │ │ │   ├── balanced-match@0.4.2 </tspan>
<tspan x="10" y="634">  │ │ │ │ │   └── concat-map@0.0.1 </tspan>
<tspan x="10" y="650">  │ │ │ │ └── path-is-absolute@1.0.1 </tspan>
<tspan x="10" y="666">  │ │ │ ├─┬ glob-parent@3.1.0 </tspan>
<tspan x="10" y="682">  │ │ │ │ ├─┬ is-glob@3.1.0 </tspan>
<tspan x="10" y="698">  │ │ │ │ │ └── is-extglob@2.1.1 </tspan>
<tspan x="10" y="714">  │ │ │ │ └── path-dirname@1.0.2 </tspan>
<tspan x="10" y="730">  │ │ │ ├── is-negated-glob@1.0.0 </tspan>
<tspan x="10" y="746">  │ │ │ ├─┬ ordered-read-streams@1.0.0 </tspan>
<tspan x="10" y="762">  │ │ │ │ ├── is-stream@1.1.0 </tspan>
<tspan x="10" y="778">  │ │ │ │ └── readable-stream@2.2.9 </tspan>
<tspan x="10" y="794">  │ │ │ ├── pumpify@1.3.5 </tspan>
<tspan x="10" y="810">  │ │ │ ├── readable-stream@2.2.9 </tspan>
<tspan x="10" y="826">  │ │ │ ├── remove-trailing-separator@1.0.1 </tspan>
<tspan x="10" y="842">  │ │ │ ├─┬ to-absolute-glob@2.0.1 </tspan>
<tspan x="10" y="858">  │ │ │ │ ├─┬ extend-shallow@2.0.1 </tspan>
<tspan x="10" y="874">  │ │ │ │ │ └── is-extendable@0.1.1 </tspan>
<tspan x="10" y="890">  │ │ │ │ └─┬ is-absolute@0.2.6 </tspan>
<tspan x="10" y="906">  │ │ │ │   ├─┬ is-relative@0.2.1 </tspan>
<tspan x="10" y="922">  │ │ │ │   │ └─┬ is-unc-path@0.1.2 </tspan>
<tspan x="10" y="938">  │ │ │ │   │   └── unc-path-regex@0.1.2 </tspan>
<tspan x="10" y="954">  │ │ │ │   └── is-windows@0.2.0 </tspan>
<tspan x="10" y="970">  │ │ │ └─┬ unique-stream@2.2.1 </tspan>
<tspan x="10" y="986">  │ │ │   ├─┬ json-stable-stringify@1.0.1 </tspan>
<tspan x="10" y="1002">  │ │ │   │ └── jsonify@0.0.0 </tspan>
<tspan x="10" y="1018">  │ │ │   └── through2-filter@2.0.0 </tspan>
<tspan x="10" y="1034">  │ │ └─┬ through2@2.0.3 </tspan>
<tspan x="10" y="1050">  │ │   └── readable-stream@2.2.9 </tspan>
<tspan x="10" y="1066">  │ ├── inherits@2.0.3 </tspan>
<tspan x="10" y="1082">  │ ├── minimist@1.2.0 </tspan>
<tspan x="10" y="1098">  │ ├─┬ mqtt-connection@2.1.1 </tspan>
<tspan x="10" y="1114">  │ │ ├── reduplexer@1.1.0 </tspan>
<tspan x="10" y="1130">  │ │ └── through2@0.6.5 </tspan>
<tspan x="10" y="1146">  │ ├─┬ mqtt-packet@3.4.8 </tspan>
<tspan x="10" y="1162">  │ │ └── bl@0.9.5 </tspan>
<tspan x="10" y="1178">  │ ├── pump@1.0.2 </tspan>
<tspan x="10" y="1194">  │ ├─┬ readable-stream@1.0.34 </tspan>
<tspan x="10" y="1210">  │ │ ├── core-util-is@1.0.2 </tspan>
<tspan x="10" y="1226">  │ │ ├── isarray@0.0.1 </tspan>
<tspan x="10" y="1242">  │ │ └── string_decoder@0.10.31 </tspan>
<tspan x="10" y="1258">  │ ├── reinterval@1.1.0 </tspan>
<tspan x="10" y="1274">  │ ├── split2@2.1.1 </tspan>
<tspan x="10" y="1290">  │ ├─┬ websocket-stream@3.3.3 </tspan>
<tspan x="10" y="1306">  │ │ ├─┬ duplexify@3.5.0 </tspan>
<tspan x="10" y="1322">  │ │ │ ├─┬ end-of-stream@1.0.0 </tspan>
<tspan x="10" y="1338">  │ │ │ │ └── once@1.3.3 </tspan>
<tspan x="10" y="1354">  │ │ │ ├── readable-stream@2.2.9 </tspan>
<tspan x="10" y="1370">  │ │ │ └── stream-shift@1.0.0 </tspan>
<tspan x="10" y="1386">  │ │ └─┬ ws@1.1.4 </tspan>
<tspan x="10" y="1402">  │ │   ├── options@0.0.6 </tspan>
<tspan x="10" y="1418">  │ │   └── ultron@1.0.2 </tspan>
<tspan x="10" y="1434">  │ └── xtend@4.0.1 </tspan>
<tspan x="10" y="1450">  ├── UNMET PEER DEPENDENCY superagent@&gt;=1.x</tspan>
<tspan x="10" y="1466">  └── superagent-bluebird-promise@3.0.2</tspan>
</text>
</svg>
